<svg width="39" height="35" viewBox="0 0 39 35" fill="none" xmlns="http://www.w3.org/2000/svg">
<path d="M38.4325 1.6L37.4725 8.43999C35.5525 8.28 33.9925 8.6 32.7925 9.4C31.5925 10.16 30.7525 11.28 30.2725 12.76C29.8325 14.2 29.7525 15.88 30.0325 17.8H38.4325V34.12H22.1125V17.8C22.1125 12.04 23.4525 7.68 26.1325 4.72C28.8125 1.72 32.9125 0.679996 38.4325 1.6ZM16.7125 1.6L15.7525 8.43999C13.8325 8.28 12.2725 8.6 11.0725 9.4C9.87248 10.16 9.03248 11.28 8.55248 12.76C8.11248 14.2 8.03248 15.88 8.31248 17.8H16.7125V34.12H0.392481V17.8C0.392481 12.04 1.73248 7.68 4.41248 4.72C7.09248 1.72 11.1925 0.679996 16.7125 1.6Z" fill="#6F55A6"/>
</svg>
